<svg width="524" height="524" viewBox="0 0 524 524" fill="none" xmlns="http://www.w3.org/2000/svg">
<path d="M296.2 15.6998C295.7 16.6998 294.5 19.9998 293.5 22.9998C289.8 34.1998 283.9 41.9998 273.5 49.4998C268.6 52.9998 228.5 73.9998 226.6 73.9998C225.7 73.9998 198.8 86.0998 191.5 89.7998C172.3 99.3998 145.4 121.7 128.5 142C111.6 162.2 95.1001 192.3 86.6001 218.1C80.7001 236 75.1001 261.4 73.9001 276.1C72.0001 298.1 75.5001 331 82.0001 352.8C90.8001 382.3 112.5 414.5 133.9 429.8C139.1 433.5 152.2 440.1 159.1 442.4C165.3 444.5 185.1 448.7 193 449.5C200.4 450.3 208.9 453.6 215.3 458.1C217.7 459.8 222.6 462.2 226.1 463.4C233.4 465.9 231.9 463.2 240.1 488.5C244.6 502.6 246.5 506.8 248.9 508.7C250.9 510.3 258.5 510.3 261.3 508.8C266.5 506.1 267.2 502 263.9 493.8C262.7 490.9 260.8 485.5 259.5 481.8C256.8 473.7 257 473.3 266.5 471.8C271.8 470.9 277.8 471 295.6 472.5C323.9 474.7 334.3 473.9 351.8 468.1C378.1 459.4 393.5 449.3 409.7 430.2C414.8 424.3 428 405 428 403.7C428 403.3 429.2 401.4 430.6 399.3C438 388.5 446.1 367.4 449.7 350C451.9 339.2 452.2 303.2 450.2 292.5C447.5 278.8 440 250.1 436.3 239.9C430.4 223.4 413.8 191.6 400.1 170.5C384.8 147 374.7 134.5 356.4 116.5C340.4 100.6 321.6 79.8998 319.3 75.5998C316.5 70.1998 313.9 61.5998 312 51.2998C309.4 36.6998 304 17.9998 301.8 15.7998C299.5 13.4998 297.3 13.4998 296.2 15.6998ZM303.5 36.9998C307.9 60.3998 310.3 71.6998 311.6 75.8998C313.6 82.6998 313.3 88.7998 310.6 94.5998C307.6 101.1 305.5 102.6 307.5 96.8998C308.4 94.5998 308.8 92.4998 308.6 92.2998C308.4 92.0998 307.4 93.9998 306.4 96.6998C304.4 102.2 300.9 107.5 295.1 114L291.1 118.5L291 113C291 106.7 292.9 98.5998 296.4 90.2998C297.7 87.0998 299.1 83.3998 299.5 81.9998C300 79.9998 299.7 80.1998 297.8 82.9998L295.5 86.4998L295.2 83.4998C295.1 81.7998 296.3 75.9998 298 70.5998C299.6 65.0998 300.9 60.4998 300.6 60.2998C300.4 60.0998 299.2 62.2998 297.9 65.1998C294.8 72.2998 294.5 69.8998 296.5 54.7998C297.4 47.9998 298.4 39.7998 298.6 36.4998C298.9 33.1998 299.4 29.3998 299.6 27.9998C300.4 24.2998 301.5 26.9998 303.5 36.9998ZM296.6 33.6998C296.3 34.6998 294.9 43.0998 293.5 52.4998C290.4 73.9998 289.8 76.1998 289 69.4998C288.7 66.0998 288.2 69.6998 287.7 80.9998C286.8 100.2 284.7 116.4 282.5 121.6C281.7 123.6 280.8 125.1 280.6 124.9C280.4 124.7 280.6 120.7 281 116C281.5 111.3 282.6 96.8998 283.4 83.9998C285 60.4998 285.6 55.5998 286.9 56.4998C287.3 56.6998 288.1 53.7998 288.7 49.9998C289.9 42.5998 294.2 31.9998 296 31.9998C296.6 31.9998 296.9 32.7998 296.6 33.6998ZM284 56.1998C283.4 59.0998 282.5 68.4998 282 76.9998C280 110.2 277.1 128.6 277 108.5C277 103 276.7 93.9998 276.2 88.4998C275.6 79.1998 275.5 79.9998 275 99.9998L274.5 121.5L271.5 112.5C268.8 104.3 268.5 102.3 268.6 90.9998C268.7 78.7998 268.8 78.2998 272.4 69.6998C276.6 60.0998 278.7 57.4998 277.6 63.3998C276.7 68.0998 277.5 67.9998 279 63.1998C280.5 58.0998 284.2 49.8998 284.8 50.3998C285 50.6998 284.7 53.2998 284 56.1998ZM273 60.7998C273 61.2998 271.8 64.9998 270.4 69.0998C267.2 78.5998 265 90.5998 265 99.3998C265 103.3 266.4 113.1 268.1 121.4C271.7 139.1 271.6 143.4 267.2 156.6C263.8 166.5 258.2 179.5 257.5 178.9C257.3 178.7 258.8 173.8 260.7 168C264.7 156.4 265.8 146.6 264.2 138.5C263.7 135.7 261.5 127.2 259.5 119.5C256.2 107.1 255.9 104.8 256.5 98.1998C256.9 94.1998 258 88.0998 259 84.6998C260.6 78.9998 262.2 75.6998 269 64.1998C271.3 60.2998 273 58.8998 273 60.7998ZM258.8 66.5998C256.1 69.0998 254 71.3998 254 71.7998C254 72.1998 250.4 76.9998 245.9 82.4998C229.7 102.8 226.4 116.1 232.1 139.1C233.9 146.4 234.9 149.2 243.4 169.4C248.1 180.6 250.3 191.5 249.5 199.7C248.9 206.4 247.2 212.4 247.1 208.5C246.9 203.4 240.8 182.2 236.1 170.5C230.7 157 227.9 146.8 225.9 134C224.4 123.9 223.6 123.6 224.4 133.5C225.4 144.6 228.1 155.6 233.3 169C239 183.7 239.6 185.8 241.4 196C244.9 216.4 244.2 225.2 240.2 210.7C234.9 191.8 232.5 184.7 228 174.5C220.6 157.7 218.9 151.7 218.1 140C217.4 130.2 217.3 129.8 216.6 134.4C215 143.5 216.7 153.3 223.1 172.3C226.5 182.1 228.9 190.4 228.7 190.7C227.6 191.8 212.2 159.1 210.5 152C208.5 143.8 208.8 135.7 211.6 125C213.7 116.7 216.1 112 221.8 104.5C226.1 98.8998 224.6 99.1998 219.3 105C213 111.8 206.7 131.4 206.7 144C206.7 153.5 209.8 163.4 218.7 181.9C231.1 207.9 237.5 225.6 238.7 236.5C239.4 243.7 238.1 243.1 235.5 235C232.1 224.6 221.3 199 215 186.5C211.7 180 213.4 185.4 220 202.5C231.8 232.8 237.1 248.9 231.5 237.5C230.1 234.7 228.3 230.8 227.5 228.6C224.7 221.8 224.7 225.6 227.4 233.5C228.8 237.6 230 241.4 230 241.8C229.9 243.2 223.7 230.5 218.5 218C215.6 211.1 212.1 203 210.7 200C206.4 190.5 199.3 172.7 197.6 167.1C196.7 164 196 158.1 196 153.6C196 138.3 198.8 127.7 206.1 115.2C210.9 107.2 229.6 88.5998 240.7 81.0998C245.7 77.6998 250.4 74.0998 251.2 73.1998C252.8 71.2998 252.5 71.3998 242 78.2998C237.9 80.9998 233 84.1998 231.3 85.3998C229.5 86.4998 223.6 91.9998 218.2 97.4998C207.2 108.7 201.5 117.5 197.6 129.2C194.2 139.4 192.4 155.7 193.9 162.5C195.9 171.4 211.4 210.8 222.4 234.8C225.5 241.6 228 247.7 228 248.3C228 249 222.8 241.6 216.4 232C204 213.3 193.9 193.9 191.8 185L190.5 179.5L190 184.5L189.5 189.5L188.2 184C185.9 174.1 184.7 161.7 185.3 151.5L185.8 141.5L184.4 148.5C182.4 158.1 184.3 181 187.9 190.4C190.2 196.3 187.9 194.1 184.9 187.4C180.9 178.8 177 164.1 177 158.1C177 153.8 178.9 140.4 180.5 133.5C182.6 124.4 189.1 110.2 193.2 105.8C194.8 104.1 195.9 102.5 195.6 102.3C194.8 101.4 188.1 110.8 184.7 117.6C179.4 128.1 174.6 148.2 174.7 159.5C174.7 167.2 175.2 170 178.3 178.7C183.1 192.4 190 204.2 213.5 239.4C224 255.2 230 266.3 228.6 267.7C228.4 267.9 226.4 264.7 224.2 260.6C219.8 252.4 214.3 244.8 208.5 238.5C204.5 234.2 205 235.3 212.2 246.5C217.4 254.6 221 261.4 221 263.2C221 265.2 219 262.6 206.5 244C200 234.4 192.8 223.8 190.5 220.5C182.2 208.6 176 195.1 173.5 183.6C172.2 177.5 172.2 177.5 172.1 181.8C172 186.6 175.6 198.3 179.7 206.3C181.1 209.2 185.4 215.9 189.1 221.2C192.9 226.5 196 231.1 196 231.3C196 231.9 206.9 249.7 213.5 260C216.2 264.1 219.9 270.8 221.7 274.8C225.9 283.8 225.8 287.3 221.6 280.9C216.1 272.6 197.3 249.5 190.4 242.5C169.6 221.5 161.6 197.4 166.5 170.5C170.8 146.5 176 124.5 179 117.5C180.1 115 180.6 113.2 180.1 113.5C177.3 115.1 168 147.2 164.2 168C163.6 171 162.7 174.6 162.2 176L161.3 178.5L160.6 176.2C160.2 174.9 159.8 166.1 159.7 156.7C159.6 141.3 159.8 138.9 161.8 133.6C164.9 125.1 169.3 118.3 178.9 106.8C187.1 96.9998 187.5 96.5998 197.7 91.7998C203.5 89.0998 208.4 87.0998 208.7 87.3998C209.1 87.6998 207.9 89.2998 206.2 90.9998C204.4 92.6998 203 94.5998 203 95.2998C203 96.0998 203.3 96.1998 203.8 95.3998C205.2 93.2998 220.7 82.1998 227.3 78.4998C234.7 74.4998 260.9 62.1998 262.5 62.0998C263.1 62.0998 261.4 64.0998 258.8 66.5998ZM259.5 76.6998C253.9 90.3998 253.8 106.5 258.9 126C262.7 140.2 263 150.2 259.9 161.1C258.8 165.2 257.6 169.7 257.3 171.3C257 172.8 256.3 174.3 255.8 174.6C255.1 175 255 173.2 255.5 169.2C256 164.8 255.8 162.5 254.7 160.5L253.3 157.7L252.2 160.9C251.6 162.6 250.9 164 250.7 164C250.4 164 250.5 159.2 250.7 153.2C251.2 142.6 248.7 107.3 247.4 106.1C247 105.8 247.1 113.6 247.6 123.5C248.6 143.9 248.6 162.7 247.6 163.8C246.6 164.8 245.2 162.1 244.6 158C244.3 156.1 243.8 146.8 243.4 137.5C242.9 127.3 242.4 121.7 241.9 123.5C241.6 125.1 241.5 132.3 241.8 139.4C242.4 154.1 241.3 155.4 238.4 143.8C237 138.5 236.5 132.8 236.5 123C236.6 111.2 236.8 108.7 238.9 103.5C242.6 94.0998 258.3 70.9998 261 70.9998C261.4 70.9998 260.7 73.5998 259.5 76.6998ZM318.5 96.2998C318.5 105 317.1 108.1 309.1 117.6C296.9 132.2 292.1 139.5 287.4 150.2C284.8 156.1 282.5 160.9 282.4 160.7C282 160.3 287.8 142.2 289.4 139.1C290.1 137.7 291 134.6 291.4 132.2C292.3 126.4 296.8 119.5 306.6 108.7C312.1 102.6 316 94.8998 316 89.9998C316 87.2998 316.3 86.7998 317.3 87.7998C318 88.5998 318.5 91.8998 318.5 96.2998ZM326.2 98.1998C328.1 101.8 328.5 104 328.5 111.5C328.4 119.3 328.1 121.2 325.8 125.8C324.3 128.7 321.6 132.9 319.8 135.2C316.5 139.3 305 148.4 304.2 147.5C303.9 147.3 305.9 144.7 308.5 141.8C313.3 136.4 319 128.7 319 127.5C319 127.1 317.4 128.8 315.4 131.2C310.1 137.5 290.9 157.2 290.4 156.8C290.2 156.6 293.8 151.2 298.3 144.9C307.9 131.7 308.7 130.5 307.3 131.3C306.7 131.7 302.5 136.7 297.9 142.4C293.4 148.2 289.4 152.8 289.2 152.6C288.6 151.9 295.2 139.6 300.1 132.5C302.7 128.6 307.8 122.1 311.4 118C318.2 110.3 322 102.7 322 96.9998C322 92.7998 323.6 93.2998 326.2 98.1998ZM334 105C336.9 110.4 338.1 132 335.9 138.8C334.4 143.4 330.6 148.7 323.4 156.2C320.3 159.4 318 162.3 318.3 162.7C319.5 163.8 333.7 148.5 336.6 143C339.3 137.8 339.4 136.8 339.5 124.7C339.5 117.7 339.8 112 340.2 112C340.6 112 341.8 114.5 342.9 117.5C346.6 127.3 345.5 139.1 339.8 150.7C336.5 157.5 322 174.1 311.8 182.6C306.7 186.9 294.7 197.8 285.3 206.8C275.8 215.8 268 222.6 268 221.8C268 217.1 293.9 186.9 305.5 178.2L308.5 175.9L304.1 178.2C298 181.4 284.8 193.2 277 202.4C270.5 210.1 269.4 211.1 270.3 208.6C270.9 207 290.4 181.4 295.6 175.2C297.6 172.9 298.9 171 298.4 171C297.4 171 284.5 183.4 278.8 189.8C273.2 196 274.2 192.7 280.8 182.5C289.4 169.4 299.1 158.7 311.5 148.8C324.2 138.8 327.1 135.6 330.6 128.1C333.3 122.5 334.2 113.1 332.6 106.2C331.7 102.6 332.4 102 334 105ZM174 106.6C174 106.9 172 109.9 169.6 113.1C164.3 120.1 160.6 127.6 158.5 135.7C156.3 143.7 155.5 165.3 156.9 177.9C157.5 183.6 157.8 188.5 157.6 188.7C155.9 190.5 148.1 167.6 147.4 158.5C146.6 149.8 148.8 137.3 152.6 129.5C156 122.1 174 103 174 106.6ZM354.3 121.9C363.7 131.5 366 135.5 366 142.4C366 146.6 362 158 360.5 158C360.2 158 360.2 154.7 360.6 150.6C361 146.3 360.8 142.5 360.3 141.5C359.5 140.2 359.1 141.9 358.8 148.1C358.1 160 355.8 164.3 343.6 176.6C335.6 184.6 331.4 187.8 323.5 192.3C312.2 198.6 309.3 199.9 310.4 198.2C310.8 197.5 315.4 194.7 320.6 191.9C325.9 189 332.7 184.4 335.8 181.5C342.3 175.5 349 164.4 351.6 155.6C353.5 148.6 353.1 138.4 350.7 133C349.2 129.7 349.1 129.7 349.8 132.5C350.2 134.1 350.5 139.3 350.4 144C350.4 150.9 349.9 153.7 347.7 158.9C341.7 173.3 335.1 180.5 319.5 189.7C304.6 198.6 303.7 199.3 293 209C287.8 213.7 279.8 221 275.1 225.2C270.5 229.5 266.4 232.8 266.2 232.5C265 231.3 276 219.3 292.5 203.6C325.9 171.8 337.7 159.5 341 153C346.8 141.4 348.6 127.9 345.5 119C342.5 110.5 343.6 110.9 354.3 121.9ZM150 126.4C150 126.6 149.1 128.7 148.1 131.1C147 133.5 145.4 139.7 144.4 144.8C142.3 156.4 143.1 162.2 149.3 180.6C155.1 197.5 157.5 202.6 165 214.6C172.9 227 177 232.6 189.5 247.3C210.1 271.6 220.2 285.8 224.1 296C226.7 302.8 225.5 301.8 219.5 292.3C215.3 285.6 206.7 273.5 205 272C204.7 271.7 203 269.7 201.1 267.5C199.3 265.3 194.5 260.1 190.6 256C174.3 238.9 162.2 222.9 157 211.6C154.6 206.2 147.9 195.7 147.3 196.3C146.9 196.8 158.5 218.8 162.5 225C167.3 232.5 174.9 241.9 185.5 253.5C208.1 278.3 216.4 290.3 221.6 305.5C224.1 313 222.5 313 219.1 305.5C215.3 297.1 210.2 289 208.7 289C208.2 289 208.3 289.8 209.1 290.7C213.3 295.8 220 311.9 220 316.9C220 319.1 219.6 318.7 217.4 314.5C212.9 306.1 206.4 297 197.4 286.5C192.7 281 185.2 272.1 180.8 266.7C176.4 261.3 171.2 255.2 169.2 253.1C151.1 234.5 147.2 229.1 144 218.2C143.3 215.9 142.5 214.2 142.3 214.4C141.6 215 145.1 226.1 147.2 230.5C148.3 232.7 154 239.4 159.9 245.5C165.8 251.5 173.5 260.3 177 265C180.5 269.7 187 277.8 191.5 283C203.3 296.8 207.3 302.5 212.3 312C216.7 320.3 219.6 327.7 218.8 328.5C218.6 328.7 216 325.3 213.1 320.9C207.7 312.7 203.5 308.2 186.7 292.1C176.2 282.1 169.8 274.9 163.6 265.7C159.5 259.8 158 258.7 158 261.7C157.9 262.8 157.1 262 155.9 259.7C154.8 257.7 153.5 256 153 256C152.4 256 152 255.1 152 254C152 253 149.5 248.5 146.6 244.1C143.6 239.7 140.4 234.8 139.5 233.3C138 230.6 138 230.6 138.6 233C139.3 235.8 147.3 249.1 149.6 251.5C150.5 252.4 150.7 253 150 253C147.8 253 139.4 244.1 135.7 237.8C128.6 225.8 127.5 220.4 127.5 196C127.5 175.6 127.6 174.1 130.1 166C131.6 161.3 134 154.9 135.4 151.6C138.5 144.7 138.7 143.4 136.1 147.5C135 149.1 131.6 157.7 128.5 166.5L122.8 182.5L123.3 199.5C123.6 211 124.3 218.4 125.4 222.3C127.8 230.7 127 231.8 123 225.4C121.1 222.4 118.9 219.3 118.2 218.5C115.3 215.3 110.9 203.6 109.5 195.3C107.1 181.5 108.3 176.9 118.2 162.2C123.5 154.4 126.3 152.5 122.9 159.1C121.8 161.4 119.3 167.3 117.4 172.1C114.3 180.1 114 181.9 114 191.2C114 197.2 114.6 203.6 115.5 206.5L117 211.5L116.4 205.5C116.1 202.2 115.9 195 115.8 189.5V179.5L121.8 165.8C128.5 150.5 129.1 149.6 140.3 135.7C147.1 127.5 150 124.6 150 126.4ZM382.7 152.5C385.7 158.2 386.5 163.3 388.1 185.6L389.4 201.7L386.6 208.4C382.6 218.5 377.8 225.3 371 230.7C360.5 238.9 356.8 242 348.5 249.5C344.1 253.5 338.7 258.2 336.5 260.1C334.3 262 332.3 263.7 332 264C327.1 268.9 306.4 284.4 295.1 291.5C288.7 295.4 273.2 307.9 267.1 314C264.3 316.8 258.7 323.5 254.8 328.8C245.9 341.1 245.2 341.8 248.5 335C253.3 325.4 258.5 318.8 270.1 307.4C282 295.8 285.9 292.7 308 276.7C325.2 264.2 336.9 252.9 342.5 243.5C343.5 241.8 339.8 245 334.4 250.5C328.9 256.1 322.5 262.2 320 264.1C314.9 268.2 306 273.5 306 272.5C306 272.2 308.1 269.7 310.6 267C313.1 264.4 319 257.1 323.7 250.9C328.4 244.6 333.1 238.5 334.3 237.2C335.4 236 335.9 235 335.3 235C334.7 235 330.4 239.7 325.7 245.3C316.6 256.4 305.3 267.4 294.9 275.5C286.6 282 289.4 278.2 299.2 269.7C308.1 261.9 314.8 252.3 317.9 242.9C319.4 238.5 322.5 233 327.6 225.9C334.6 216.2 334.8 215.9 330 220.8C323 228.3 319.2 234 315.4 243.3C310.9 254.2 307.9 258.1 298.5 266C294.1 269.7 286.4 276.5 281.5 281.1C276.5 285.7 270.3 291.4 267.7 293.8C265.1 296.1 263 298.4 263 298.9C263 299.4 262.4 300 261.6 300.3C260.5 300.8 260.3 300.3 261 298.1C261.9 295 264.4 289.8 267.2 285.5C268.6 283.4 268 283.8 265.1 286.9C262.9 289.3 260 293.2 258.8 295.6C255.9 301.6 255.5 300.5 258.1 293.6C260.6 286.7 267.5 276.4 276.7 265.4C284.6 255.9 291.8 246.9 297.5 239.5C309 224.5 315.6 217.9 328.5 208.8C343 198.5 357.5 183.5 362.2 174C364.2 169.9 366.4 164.2 367.1 161.5C369.3 152.2 370.2 153.9 369.7 166.5C369.1 181.4 365.8 192.1 357.5 206L354.8 210.5L357.4 207.5C360.6 203.8 367.1 190.6 370.1 182C372 176.7 372.4 172.9 372.6 161.5C372.8 153.8 373 147.3 373 147C373.3 144.9 376.4 155.2 378.1 164.3C381.7 182.9 379.3 197.3 370.5 210.5C362.4 222.6 361.9 224.9 369.6 214.9C377.2 204.9 380.7 196.9 382.4 185.2C383.2 179.8 381.4 164.7 378.9 155.5C377.8 151.7 376.7 147.4 376.3 146L375.7 143.5L378 145.5C379.2 146.6 381.4 149.7 382.7 152.5ZM394 179.5C398.3 200.3 398.6 203.9 396.5 208.1C394.3 212.4 386.4 220.7 382.5 222.7L379.6 224.3L381.3 221.9C382.3 220.6 384.5 216.6 386.3 213C389.4 206.8 389.5 206 389.5 194.5C389.5 187.9 389.2 177.9 388.8 172.3C388.2 162.6 388.6 159.5 390.1 162.2C390.5 162.9 392.2 170.7 394 179.5ZM398 175C401.1 181.1 403.1 191.4 402.8 199.3C402.5 207.3 402.6 207.7 398.5 190C395.6 177.7 394.5 171 395.4 171C395.7 171 396.9 172.8 398 175ZM352.2 182.7C347.4 189.3 335.3 200.3 325.3 207.1C302 222.9 291.7 231.4 277 247.2C269.1 255.6 260.4 265.8 257.7 269.7C254.9 273.7 252.4 276.8 252.2 276.5C251.4 275.7 259.7 258.3 264 252C274.1 237 291 219.2 302.6 211.3C305.8 209.1 313 205 318.5 202.2C324 199.4 329.9 196.3 331.5 195.3C333.2 194.3 337 192.1 340 190.3C343 188.5 347.1 185.5 349 183.6C353.2 179.4 354.9 178.9 352.2 182.7ZM408 191.3C410.3 196.4 412.5 216.3 411.6 223.5C410.7 230.4 406.7 243 405.4 243C404.7 243 405 238.9 406.1 230.7C408.2 216.1 408.3 214.7 407 215.5C406.5 215.8 406 217.8 406 219.8C405.9 230.1 400.8 250.3 397.4 254C396.2 255.2 396 255 396 252C396 246.5 397.9 236.2 400.4 227.5C405.2 211.3 406.3 204.5 405.8 195.5C405.5 190.8 405.4 187 405.7 187C405.9 187 407 188.9 408 191.3ZM261.5 202C252.2 236.2 248.1 254 243.9 278C233.4 338.2 232.9 401 242.5 448.5C245.6 463.7 251.1 483.9 254.4 492C257.7 500.1 257.8 503.3 254.8 502.8C253.1 502.6 252 500.9 249.8 495.2C243.8 479.3 237.2 448.2 234.6 422.8C232.2 400.6 230.7 361.2 231.4 343.2C233.1 302.9 242.1 256.2 257.9 206.5C262.7 191.1 263.1 190.2 263.6 191.5C263.8 192.1 262.9 196.8 261.5 202ZM102.6 199.3C101.4 203.2 101.4 203.9 102.5 203C105 200.9 105 203.9 102.5 218.3C101.1 226.2 100.1 234.7 100.1 237.1L100.3 241.5L101 236C101.4 233 102.4 227.8 103.3 224.5C104.1 221.2 105.1 216.4 105.5 213.8C106.4 207.1 107.7 207 109 213.7C111.7 227.7 117.1 239.6 125.9 251C129.1 255.1 132.7 260.5 134 263C135.3 265.5 138.3 270.2 140.9 273.5C145.7 279.9 161.2 295.5 167 299.9C172.1 303.6 189.8 318.8 190.5 320C191.7 322 189.6 320.9 181.4 315.5C174 310.6 167.3 307 165.4 307C165 307 168.1 309.2 172.1 311.9C194.9 327.2 202.2 333.6 214.9 350.3C217.5 353.6 215.2 353.1 211.4 349.4C203.4 341.9 194.1 335 181.1 327C160.4 314.4 157.2 312 146.5 300.9C137.6 291.6 135.9 291 144 300C153.7 310.7 158.3 314.6 167.9 320.6C193.9 336.9 208.4 349.7 214.8 361.9C216.6 365.4 217.9 368.5 217.6 368.7C217.4 369 215.7 367.5 213.8 365.5C200.1 350.3 182.5 335.8 165.3 325.4C142.9 312 134.5 305.4 120.7 290.6C103.3 271.9 96.7001 260.5 93.4001 243.3C90.4001 227.5 92.2001 215.4 100.2 198.3C103.7 191 105 191.5 102.6 199.3ZM416.5 212.5C418.2 222.6 417.4 227.7 413.4 234.6C409.6 241 408.8 240.8 411.3 234.3C413 229.5 413.4 226.2 413.4 215.3C413.4 208 413.8 202.4 414.3 202.9C414.7 203.3 415.7 207.7 416.5 212.5ZM398.7 216.7C398.5 219.4 397.2 224.9 395.7 229C394.3 233.1 392.2 241.8 391 248.4C389.9 254.9 388 262 386.9 264.1C381 275.7 366.1 294.6 354.5 305.1C349.4 309.8 327.3 324.9 310 335.6C304.8 338.8 297.8 343.4 294.5 345.7C291.2 348.1 285.1 352.4 281 355.2C276.9 358 269.3 364.5 264.2 369.7C259 374.8 255.2 378.1 255.5 376.9C255.9 375.6 255.7 374.5 255.1 374C254.3 373.6 255.4 371.4 258.3 367.4C265.6 357.6 278.5 347.3 300.5 333.9C307.7 329.5 317.2 323.4 321.7 320.2C326.2 317.1 333.4 312.5 337.7 310C350.4 302.7 363.7 288.9 371.3 275C373.2 271.4 376.2 266 377.9 263C379.6 260 381 256.8 381 256C381 255.2 377.5 261 373.2 268.9C366.7 281.1 364.2 284.6 357.5 291.5C348.6 300.6 342 305.6 331 312C326.9 314.3 320.4 318.6 316.5 321.4C312.7 324.3 306.8 328.1 303.5 330C285.4 340 274.5 347.2 265.6 354.9C254 364.9 260.9 354.1 274 341.7C282.9 333.3 289.3 328.7 299.1 323.9C302.4 322.3 305 320.8 305 320.5C305 319.6 293.3 324.2 287.4 327.5C280.7 331.3 266.3 341.6 264.1 344.3C263.4 345.2 262.4 345.8 262 345.5C261.6 345.2 260.7 345.7 260 346.5C257.5 349.5 257 347.9 259.1 343.7C266 330.3 275 320.4 286.6 313.6C295.1 308.6 295.7 307.9 288.8 310.9C276.6 316.2 265 327.5 256.4 342.5C251.8 350.5 252.3 345.2 257 336.2C262.3 325.9 270.5 316.1 278.8 310C282.5 307.3 297.9 298.9 313 291.3L340.5 277.6L365 253.4C378.5 240.1 389.1 228.8 388.7 228.4C388.3 228 377.3 238.2 364.2 251.2C351.2 264.1 339.2 275.6 337.5 276.7C334.1 279 318.1 285.4 313.3 286.5C311.2 286.9 310 286.8 310 286.1C310 285.5 310.4 285 310.9 285C312.6 285 330.8 270.5 344.5 258.1C352.2 251.1 363.5 241.6 369.5 237C384.3 225.8 397 215.1 397.7 213.4C398.7 210.9 399 211.9 398.7 216.7ZM114 220C114 222.4 128.2 239.4 137.6 248.4C143.4 253.8 150.8 262.1 154.2 266.9C162.5 278.5 164 280.1 181.4 298C191.6 308.4 198.7 316.8 203.3 323.6C209.1 332.3 211 336 209.6 336C209.4 336 204.6 331.2 198.9 325.4C193.2 319.6 183.8 311.2 178 306.7C164.1 296 143.6 275.2 138.5 266.6C136.3 262.9 131.7 256 128.3 251.2C124.8 246.4 120.5 239.6 118.6 236C114.8 228.7 111.6 219 113.1 219C113.6 219 114 219.4 114 220ZM306 226C304.9 227.6 303.4 229.2 302.9 229.6C302.3 229.9 296.4 237 289.8 245.4C283.2 253.7 275.4 263.2 272.6 266.5C264.3 276.1 257.8 285 254.3 291.5C250.6 298.4 250 296.8 253.2 288.3C258.1 275.2 268.3 260.3 283.6 244.1C291 236.2 306.1 223 307.7 223C307.9 223 307.2 224.3 306 226ZM425.8 227.6C434.3 251.2 434.2 250.7 434.3 265C434.4 276.8 434.1 279.3 432.1 285C428.4 295.1 420.3 310.7 414.2 319.5C404.7 333.1 399.4 341.3 397.2 345.5C391.4 357 379.1 366 360.4 372.6C341.4 379.3 331.9 383.4 316.6 391.6C292.6 404.5 273.6 418.1 262.7 430.3C259.1 434.2 255.9 437.3 255.6 437C254.7 436 268 418.9 275.2 411.8C278.9 408.2 285.8 402.6 290.6 399.4C301.9 392 327.5 379.1 339.8 374.7C345.2 372.7 354.8 369.3 361.4 366.9C367.9 364.6 374.2 361.8 375.4 360.8L377.5 358.9L375.2 360C373.9 360.6 364.7 364 354.7 367.4C328.3 376.6 315.9 382.2 296.3 393.7C280.2 403.1 272 410.2 262.3 422.8C259.2 426.8 256.5 429.8 256.2 429.5C255.3 428.7 261.9 417 266.8 410.7C274.6 400.5 288.7 386.5 296.5 381.1C309.5 372.1 329.2 364.5 352.5 359.4C358.6 358.1 364.9 356.6 366.5 356C372.7 353.9 359.6 356.2 348 359.2C341.7 360.8 334 362.8 331 363.5C317.6 366.9 301.3 374.7 291 382.5C285.2 387 268.3 404.1 263.8 410C262.3 411.9 259.1 417.1 256.6 421.5C254.1 425.9 252 428.7 252 427.7C252 424.5 257.2 412.8 261.1 407C266.3 399.6 283.2 381.7 288.4 378.1C295.1 373.4 308.1 366.6 314.8 364.1C322 361.4 322.3 360.1 315.3 362C306.4 364.4 285.3 376.3 281.2 381.2C278.1 384.8 272.5 388.2 268.8 388.6C266.1 388.9 265.9 388.8 267.1 387.4C267.8 386.6 269.7 385.2 271.3 384.4C272.9 383.5 274 382.6 273.7 382.4C272.9 381.6 265 385.9 260.5 389.4C254.6 394.2 253.5 394.7 255.4 391.8C259.3 385.8 269.6 378.4 283.9 371.2C306 360.2 310.5 358.4 324 355C350.5 348.4 377.4 337 389.8 327.2C394.9 323.2 394.7 321.5 389.6 325.4C382.8 330.5 368.9 338 359.2 341.6C353.9 343.6 341.2 347.4 331 350C320.8 352.6 310.6 355.6 308.5 356.5C306.3 357.4 302.8 358.8 300.6 359.6C294.4 361.9 297.8 358.8 307.4 353.6C316.4 348.7 321.1 346.7 334.8 342C339.9 340.2 343.9 338.6 343.7 338.4C343.5 338.2 338.9 339.1 333.4 340.5C321.7 343.4 307.6 350.1 289.2 361.2C281.9 365.7 275.7 369.1 275.4 368.8C275.1 368.4 277.7 366.1 281.2 363.6C299.1 350.6 306.6 345.7 314.4 342.1C319.2 339.9 322.9 337.6 322.8 336.9C322.3 335 339.4 326.4 350.5 323C379.4 314 391.5 307.6 405.1 294.1C411.8 287.4 414.7 283.7 417.8 277.5C423.5 266.1 426 257.2 426 248.5C426 240.9 423.9 234.2 422.6 237.6C422.2 238.6 422.5 239.7 423.1 240.1C423.9 240.5 424.1 243.8 423.8 250.6C423.4 258.4 422.7 261.9 420.5 267.3C413.2 285.2 401 298.1 382.3 307.4C375.1 311 360.8 315.5 358.7 314.7C358 314.5 360.4 312.9 364 311.1C370.6 307.8 373.3 306 372.7 305.3C372.5 305.1 370.2 305.9 367.6 307.1C359.5 310.6 358.8 309 366 303.6C369.6 300.9 373.2 298.5 374 298.2C378.2 296.7 395.2 286.5 398.6 283.4C402.4 279.9 402.5 279.9 399 282.4C397.1 283.7 391.9 286.5 387.5 288.5C383.1 290.5 378.7 292.6 377.8 293.1C375.3 294.4 375.6 293 378.3 290C380.6 287.3 386.3 283.6 397.1 277.7C407.8 271.8 418.7 258 420.4 248C420.9 245.3 420.6 245.6 419.1 249.6C415.3 259.9 406.8 270.5 399.3 274.3C395.5 276.3 386 279.3 385.4 278.8C384.9 278.3 392 268.8 393.7 267.7C394.4 267.3 397.4 263.1 400.5 258.5C403.6 253.8 407.4 248.5 408.9 246.7C413.1 242 418.4 233.2 420.5 227.7C421.5 225.1 422.8 223.1 423.3 223.3C423.9 223.5 425 225.4 425.8 227.6ZM89.7001 237.2C89.5001 244.1 90.0001 246.8 92.3001 253C97.3001 266.3 101.4 274.3 106.3 280.2C111.7 286.7 112.1 288 108.3 285.5C101.1 280.9 96.7001 274.6 92.8001 263C91.2001 258.3 91.0001 258.1 91.6001 261.4C93.2001 271.9 99.5001 282.5 107.3 287.9C111.2 290.6 117.7 296.9 115.5 295.8C115 295.6 110.6 293.5 105.9 291.2C99.3001 288 96.7001 286.1 94.3001 282.8C85.3001 270.2 82.4001 257.4 85.1001 242.4C87.8001 226.9 89.9001 224.6 89.7001 237.2ZM88.4001 280.2C92.5001 287.3 100.3 293.7 114.8 302C124.6 307.6 127.3 309.6 125.6 309.8C122.9 310.2 111.3 305.9 105.1 302.3C99.4001 299 93.2001 293.4 91.4001 289.8C89.1001 285.4 88.0001 286.5 89.4001 291.7C90.1001 294.4 91.2001 298.7 91.9001 301.5C93.2001 306.8 98.0001 315.9 100.7 318.1C101.6 318.9 100.9 317 99.2001 313.9C96.6001 309.4 92.0001 298 92.0001 296.3C92.0001 296 94.8001 298.1 98.3001 300.8C106.3 307.2 116.4 312.3 126.5 314.9C143.4 319.4 157 326.2 173.5 338.4C176.8 340.9 181.4 344.1 183.7 345.7C189.3 349.4 190.1 351.3 185.2 349.3C178.9 346.7 168 341 156.3 334.3C145.3 328 134.1 323 131.1 323C130.2 323 133.9 325 139.2 327.4C144.5 329.8 151.7 333.5 155.2 335.7C158.7 337.9 167.6 343 175 347C191.1 355.7 208.9 370.3 215.3 380C218.2 384.3 217.1 384.4 212.5 380.1C206 374.1 204.9 375.1 211 381.6C219.7 390.8 216 388.6 205.4 378.2C195.8 368.7 188.5 363.2 180.8 359.7C175.3 357.3 176.2 358.5 182.3 361.9C192.7 367.8 206.9 381.3 214.4 392.4C218.6 398.6 217.5 398.5 210.3 392.2C190 374.3 186.3 371.2 182.1 368C175 362.5 166 356.9 166 357.8C166 358.3 167 359.2 168.3 359.8C173.8 362.5 212.5 397 217.2 403.4C221.3 409 223.8 414.1 224.9 418.9C226 423.8 225 424.2 222.8 419.7C220.1 414.1 211.3 404.6 199.7 394.9C193.6 389.7 184 381.2 178.4 375.9C165.1 363.2 150.9 355 137 351.9C131.2 350.6 112.2 340.1 104.3 333.8C92.6001 324.5 86.6001 314 85.0001 299.9C84.5001 295.3 83.4001 287 82.5001 281.5C81.7001 276 81.0001 269.5 81.1001 267V262.5L83.4001 269C84.6001 272.6 86.9001 277.6 88.4001 280.2ZM442.4 280.6C446.8 310.2 446.5 317.7 440.5 330.7C434.8 342.9 426.2 349.4 410.4 353C405.5 354.1 400.6 355.3 399.5 355.7C397.8 356.2 397.7 356.1 398.8 354.7C399.5 353.9 404.5 351.3 409.8 349.1C420 344.7 424.3 341.6 428.4 335.3C431.2 331 436 318.8 435.9 316.2C435.9 315.3 435.1 316.7 434.1 319.5C429.1 333.5 424.3 339.8 415.5 344C409.7 346.8 402.3 348.4 406 346C406.8 345.5 407.1 344.8 406.7 344.4C406.4 344 405.2 344.3 404.3 345.1C402.6 346.4 402.6 346.4 404.3 344.4C405.2 343.3 406 341.5 406 340.4C406 339.4 410.1 332.3 415 324.7C424.9 309.5 428.5 302.8 432.1 293C434.4 286.9 434.5 286.7 434.8 289.8C435.3 294.6 432.3 308.2 429.4 314.7C428.1 317.8 427.1 320.5 427.3 320.7C427.5 320.9 429.2 317.8 431 313.8C435.7 303.2 438.9 287.5 439 274.5C439.1 265.2 440.5 267.7 442.4 280.6ZM116.7 298.7C119.2 300.8 118.9 300.8 113.3 298C109.8 296.3 107 294.8 107 294.6C107 293.5 114.2 296.6 116.7 298.7ZM89.1001 322L90.0001 324.5L88.1001 322.2C86.1001 319.9 82.0001 310.1 82.0001 307.7C82.0001 306.5 87.4001 317.4 89.1001 322ZM89.5001 331.3C91.0001 334.1 95.1001 340.3 98.5001 345C101.9 349.7 106.4 356.2 108.5 359.5C110.6 362.8 115.9 369.2 120.4 373.6C132.9 386.2 141.3 389.7 170.8 395C191.2 398.7 204.6 406.7 216 422.1C219.3 426.6 222 430.7 222 431.3C221.9 432 221 431.4 219.9 430C212.6 420.9 210.4 418.6 205 414.5C191.8 404.4 175.9 399.5 151 398C135.1 397.1 131.5 396.3 122.5 391.8C105.9 383.5 92.4001 368 87.6001 351.6C84.3001 340.6 81.7001 329 82.2001 328.4C82.5001 328.2 83.9001 331.2 85.4001 335.2C86.8001 339.2 89.1001 343.8 90.5001 345.4C93.7001 349.1 93.6001 348.7 90.1001 340.9C88.6001 337.4 86.3001 331.8 85.1001 328.5C83.0001 322.9 83.0001 322.7 84.8001 324.3C85.8001 325.3 88.0001 328.4 89.5001 331.3ZM441.8 336.6C439.1 343.3 437.4 345.6 431 352C421.6 361.3 416.9 364.6 408.5 367.6C401.5 370.1 386.2 372.4 379.5 371.8L375.5 371.5L382.3 368.2C386.1 366.4 390.8 363.6 392.8 362C395.4 359.9 399.7 358.2 407.5 356.2C419.4 353 425.3 350.4 431.3 345.7C434.9 342.8 441.6 333.8 443.3 329.6C443.7 328.6 444.3 327.9 444.5 328.2C444.8 328.5 443.6 332.2 441.8 336.6ZM97.0001 330.5C99.7001 333.7 112.3 342.3 120.7 346.6C130.9 351.8 133 353.6 128.3 352.7C121.1 351.3 96.7001 335.1 94.6001 330.2C93.9001 328.5 95.5001 328.7 97.0001 330.5ZM443.5 345.5C437.4 363.9 430.9 374.2 417.7 386.6C411.2 392.7 409.1 394 399.3 397.8C386 403.1 380.1 404.4 360 406.4C351.5 407.3 339.9 409 334.2 410.1C328.6 411.2 323.2 412 322.2 411.8C318.8 411.1 332.7 406.8 351 402.9C377.5 397.2 391.8 393 405.4 386.6C412.6 383.2 416.4 380.7 422.4 375C426.6 371 430 367.3 430 366.7C430 366.2 426.5 369.1 422.3 373.1C409.5 385.3 389.4 393.7 361 399C330.1 404.7 319.9 407.4 309.5 412.9C306.2 414.7 299.6 417.6 294.9 419.5C290.1 421.3 284.5 423.9 282.4 425.3C280.2 426.6 277.4 428.3 276 429L273.5 430.3L275.5 428C281.3 421.4 296.6 411.8 309.7 406.6C321.5 402 353.4 392.8 369.5 389.6C392.8 384.8 411.1 379.7 409.7 378.4C409.5 378.2 404 379.6 397.5 381.4C390.9 383.2 381.2 385.5 376 386.4C370.8 387.4 358.9 389.9 349.7 392.2C328.9 397.1 326.7 396.6 342.3 390.4C347.5 388.3 347.9 388 344.9 388.4C341.8 388.8 328.4 393.7 314.8 399.4C312.7 400.3 311 400.7 311 400.3C311 399.4 339.8 385.2 350.2 380.9C357.8 377.8 366.4 376.4 385.5 375.4C407.2 374.3 415.4 371.2 428.2 359.2C436.8 351 441.4 344.6 444.5 336.5C448 327.4 447.2 334.6 443.5 345.5ZM104.8 345C121.7 358.8 127.7 362.5 135.5 363.9C142.1 365.1 141 363.8 133.7 361.7C128.1 360 120.4 356.2 121.2 355.5C121.4 355.3 124.1 356 127.1 357C130.2 358.1 136.1 359.4 140.1 360.1C149.2 361.4 154 363.5 163.3 369.9C171.1 375.4 181.6 384.7 180.8 385.5C180.1 386.2 161.2 376.3 157 373C151 368.4 150.3 368.7 155.6 373.7C158.4 376.4 164.4 380.4 169.3 382.9C174.1 385.3 178 387.6 178 388.2C178 388.7 177.2 388.9 176.3 388.6C175.3 388.4 172.9 387.8 171 387.5C164 386.1 155 381.8 151.1 378C148.3 375.2 145.6 373.7 140.9 372.4C130.2 369.5 124.4 366.3 116 358.3C111.6 354.2 108 351.2 108 351.7C108 353.1 119.1 363.5 124.8 367.4C127.8 369.4 132.1 371.5 134.3 372.1C144.6 374.9 147.6 376.2 149.4 378.7L151.3 381.3L148.7 380.6C144.6 379.6 145.5 380.7 150.9 383.5C155 385.6 158.2 388 156.7 388C155.2 388 144.5 384.3 140 382.2C133 379 121.7 370.6 116.4 364.8C112.1 360.2 99.5001 342 100.5 342C100.9 342 102.8 343.3 104.8 345ZM433.1 378.6C421.2 403.5 413.4 412.1 393.5 422.3C382.3 428 380.1 428.3 355.4 427.5C325.3 426.5 305.6 428.8 290.7 435.1C282.8 438.4 284 436.3 292.1 432.6C300.5 428.8 317.6 424.5 330.7 422.9C342.4 421.5 342.8 420.6 331.4 421.4C312.4 422.8 287.1 431 272.8 440.4C267.2 444.1 270.2 440 276.3 435.6C285.5 429.1 299.3 422.5 309.5 419.9C319 417.4 327.2 417.1 364.5 418.1L379.5 418.5L389 414.2C399.6 409.5 412 400.7 417.1 394.3C419 392 424.3 385 429 378.7C433.7 372.3 437.7 367.3 437.9 367.5C438.1 367.7 435.9 372.7 433.1 378.6ZM121.4 393.7C130.7 398.4 134.2 399.2 150 400C174.7 401.3 189.2 405.9 203.4 416.8C209.8 421.7 209.7 423.7 203.3 419.7C198 416.4 185.5 411.4 179.1 410.1C176.1 409.5 165.3 408.5 155.1 408C135.3 407 129.7 405.8 120.9 400.6C118.5 399.2 115.5 397.6 114.2 397C112.9 396.5 112.1 395.6 112.4 395.2C112.7 394.7 110.2 391.1 106.9 387.1C103.7 383.1 101 379.6 101 379.4C101 379.2 104.5 381.7 108.8 385.1C113 388.4 118.7 392.3 121.4 393.7ZM259.3 395.7C256.4 398.8 253.8 401.1 253.5 400.8C253 400.3 263 390 264 390C264.3 390 262.2 392.6 259.3 395.7ZM410 396.8C410 398 395.3 407.4 388.8 410.4C379.1 414.9 364.1 415.6 351 412.2C346.4 411 347.9 410.5 362 408.5C377.6 406.3 388.8 403.5 399 399.5C407.9 396 410 395.5 410 396.8ZM135.8 414.2C143.4 416.8 147 417.4 165 418.6C187.7 420.1 187.4 420 198.1 424.2C204.9 426.8 213.8 432.6 212.7 433.6C212.5 433.9 209.4 432.7 205.9 431C195.7 426.2 188.1 425.1 162.8 424.8C134.5 424.4 136.5 425.9 166 427.1C189 428.1 195.9 429.3 205 433.8C211 436.8 221 443.9 221 445.2C221 445.6 217.4 444.2 213 441.9C204 437.4 196 436 178.3 436C167.4 436 156.2 434.2 149 431.4C144.4 429.6 137.3 425.5 135.5 423.6C135 423 132.7 421.2 130.6 419.6C125.9 416.1 113 403.1 113 401.9C113 401.4 116.2 403.3 120 406.1C124.7 409.6 129.9 412.3 135.8 414.2ZM151 409C163.6 409.6 170.9 410.4 177 411.9C185.3 414 199.4 420.2 200.7 422.3C201.1 423 200.7 423.1 199.4 422.5C190.2 418.7 184.7 417.8 167.5 417C148.2 416.1 142.5 415 130.9 409.8C122.6 406.1 120.4 403 128.3 406.2C132.6 407.9 136.6 408.4 151 409ZM405.2 424.3C395.5 435.8 390.7 440.4 382.5 446C368.9 455.2 358.2 459 345.9 459C339.8 459 322 454.8 310.1 450.6C307.7 449.7 303.4 449 300.6 449C295 449 281.7 451.9 275.6 454.5C271 456.5 269.9 455.8 273.1 453C276.4 450.1 282.6 447.4 293.4 444.2C302.3 441.6 303 441.5 332.5 441.3C359.8 441.2 363.2 441 370 439C382.2 435.6 381.8 435.6 378.1 438.9C371.8 444.4 359.2 449 350 449C347.5 449 338.5 448.3 329.9 447.4C316.5 445.9 309.6 445.9 311.1 447.4C311.3 447.6 319.2 448.6 328.5 449.5C347.2 451.4 354.4 451 364.6 447.9C373.1 445.3 378.1 442.1 385 435.1C389.9 430.1 410.9 414.9 411.9 415.6C412.1 415.8 409.1 419.7 405.2 424.3ZM385.2 430.2C383.4 431.9 373.9 436 368.1 437.5C362.8 438.8 357 439.1 334.6 438.9C307 438.7 301.6 439.1 292.2 441.7C285.1 443.7 283.6 442.9 288.7 439.7C295.7 435.3 310.9 431.5 329 429.6C335.3 429 385.9 429.5 385.2 430.2ZM195.9 440.1C204.2 441.1 211.4 444.2 220.1 450.7C225.1 454.3 227.4 457 225.6 457C225.3 457 220.3 454.5 214.3 451.5C204.3 446.4 202.2 445.7 187 442.9C163.9 438.7 162.1 437.9 176.5 438.6C183.1 438.9 191.8 439.6 195.9 440.1ZM320 458C329.8 461.3 337.5 463 342.8 463C350.4 463.1 343 465.2 331.6 466.2C318.4 467.4 306.6 467.3 295 465.9C290.3 465.3 282.2 465.1 277 465.5C269.2 466 267.9 465.9 269.5 464.9C273.6 462.3 282.9 461 298.5 460.9C310.8 460.7 313.1 460.5 308.5 460C305.2 459.6 298.5 459.2 293.5 459.1C284.7 458.9 284.6 458.9 287.4 457.3C294.8 453.4 306.9 453.6 320 458Z" fill="black"/>
<path d="M300.2 95.9999C299 98.4999 296.9 102.5 295.5 105C293 109.4 292.1 113.3 293.9 111.4C295.8 109.6 303.1 93.8999 302.7 92.6999C302.5 92.0999 301.3 93.4999 300.2 95.9999Z" fill="black"/>
<path d="M206.2 99.5C201.6 104.5 192.5 118.8 193.3 119.6C193.5 119.8 195.8 116.6 198.4 112.5C201 108.4 205.2 102.5 207.6 99.5C210.1 96.5 211.9 94 211.7 94C211.4 94 209 96.5 206.2 99.5Z" fill="black"/>
<path d="M190.2 125.9C189.6 127.6 189.3 129 189.6 129C190.3 129 192.1 123.8 191.6 123.3C191.4 123.1 190.8 124.3 190.2 125.9Z" fill="black"/>
<path d="M302.7 166.7C300.7 168.1 299.2 169.5 299.4 169.7C299.6 170 301.7 168.8 304.1 167.1C309.2 163.4 308.1 163.1 302.7 166.7Z" fill="black"/>
<path d="M131.6 180.2C131.2 184.4 131.1 191.1 131.4 195.2C132.3 205.1 135.2 223.1 135.8 222.6C136 222.3 135.7 218.4 135 213.8C134.3 209.2 133.5 198.1 133.1 189C132.4 173.1 132.4 172.8 131.6 180.2Z" fill="black"/>
<path d="M138 181.1C138 184.1 138.4 187.1 138.9 187.9C139.5 188.8 139.6 187 139.3 182.9C138.6 174.9 138 174 138 181.1Z" fill="black"/>
<path d="M146 200.9C146 202.9 153.2 217.7 157.3 224.2C161.5 230.6 164.7 233.5 161 227.4C159.7 225.3 155.8 218.1 152.3 211.5C148.9 204.9 146 200.1 146 200.9Z" fill="black"/>
<path d="M292.1 255.2C286.7 261.1 283.7 265 284.2 265.6C284.5 265.8 286.4 263.9 288.5 261.3C290.6 258.6 292.8 256 293.4 255.5C295.2 253.8 297.3 251 296.7 251C296.4 251 294.3 252.9 292.1 255.2Z" fill="black"/>
<path d="M102.1 249.1C101.9 251.7 105.1 260 108.6 266.2C113.4 274.7 121.3 285.9 122.2 285.4C122.6 285.2 119.8 280.4 115.9 274.9C107.4 262.6 107.1 262.1 104.4 254C103.2 250.4 102.1 248.2 102.1 249.1Z" fill="black"/>
<path d="M378.7 247.7C372.1 257.3 357.5 275.4 352.6 280.3C349.8 283.1 344.5 287.3 340.7 289.7C333.8 294.3 312 303.5 301.1 306.5C297.7 307.5 295.1 308.5 295.4 308.7C296.6 310 316.4 303.5 333.3 296.3C339.2 293.8 347.5 288 353.4 282.2C359.2 276.6 373.4 258.3 379.4 248.7C383.8 241.9 383.3 241.1 378.7 247.7Z" fill="black"/>
<path d="M384.7 248.2C383.1 251 382.1 253.4 382.4 253.7C382.6 254 384.1 251.9 385.5 249C386.9 246.1 388 243.7 387.8 243.5C387.6 243.3 386.2 245.4 384.7 248.2Z" fill="black"/>
<path d="M423 283C422.3 284.7 420 288.6 417.8 291.6C415.7 294.7 414.1 297.4 414.3 297.6C414.8 298.2 420.4 290.2 422.9 285.2C424.1 282.8 424.9 280.6 424.7 280.4C424.5 280.1 423.7 281.3 423 283Z" fill="black"/>
<path d="M397.2 311C386 319.7 382.3 322 370.7 326.9C366.5 328.8 363.1 330.5 363.3 330.7C364.2 331.5 378 326.5 383.3 323.4C386.5 321.5 393 316.7 397.8 312.7C402.5 308.8 406.8 305.2 407.4 304.8C408 304.4 408.2 303.9 407.9 303.6C407.6 303.3 402.8 306.6 397.2 311Z" fill="black"/>
<path d="M391.6 335.4C387.6 343.6 382.5 348.8 375.4 351.7C373 352.7 371 353.8 371 354.2C371 355.3 378 352.1 382.6 349C387.9 345.3 391.2 340.8 393.8 333.7C395 330.6 395.8 328 395.6 328C395.3 328 393.5 331.3 391.6 335.4Z" fill="black"/>
<path d="M123 327.8C123 328.7 136.4 336.4 139.8 337.5C143.7 338.7 142.2 337.2 136.3 334.2C133.1 332.6 128.8 330.3 126.8 329.2C124.7 328 123 327.4 123 327.8Z" fill="black"/>
<path d="M114 331.5C116.4 334.4 126.6 339.8 138.5 344.5C145.1 347.1 153.1 350.5 156.3 352.1C159.4 353.7 162 354.8 162 354.6C162 353.3 150.3 347.3 140.1 343.4C133.7 340.9 125 336.9 120.6 334.5C116.3 332 113.3 330.7 114 331.5Z" fill="black"/>
</svg>
